<svg xmlns="http://www.w3.org/2000/svg" viewBox="0 0 24 24" width="24" height="24">
  <rect width="24" height="24" rx="6" fill="#0A0A0A" stroke="#25D366" stroke-width="1"/>
  <path d="M2 12c2.21 0 2.21-2 4.42-2s2.21 2 4.42 2 2.21-2 4.42-2 2.21 2 4.42 2 2.21-2 4.42-2 2.21 2 4.42 2v2c-2.21 0-2.21-2-4.42-2s-2.21 2-4.42 2-2.21-2-4.42-2-2.21 2-4.42 2-2.21-2-4.42-2-2.21 2-4.42 2v-2zM2 7c2.21 0 2.21-2 4.42-2s2.21 2 4.42 2 2.21-2 4.42-2 2.21 2 4.42 2 2.21-2 4.42-2 2.21 2 4.42 2v2c-2.21 0-2.21-2-4.42-2s-2.21 2-4.42 2-2.21-2-4.42-2-2.21 2-4.42 2-2.21-2-4.42-2-2.21 2-4.42 2V7zM2 17c2.21 0 2.21-2 4.42-2s2.21 2 4.42 2 2.21-2 4.42-2 2.21 2 4.42 2 2.21-2 4.42-2 2.21 2 4.42 2v2c-2.21 0-2.21-2-4.42-2s-2.21 2-4.42 2-2.21-2-4.42-2-2.21 2-4.42 2-2.21-2-4.42-2-2.21 2-4.42 2v-2z" fill="#25D366"/>
</svg>