<svg xmlns="http://www.w3.org/2000/svg" width="512" height="512" viewBox="0 0 512 512">
  <rect width="512" height="512" rx="96" fill="#121212"/>
  <g transform="translate(256,256)">
    <path d="M-120 20 C-90-40,-30-80,0-40 C30 0,60-60,90-20 C120 20,60 60,30 20 C0-20,-30 40,-60 0 C-90-40,-120 20,-120 20Z" fill="none" stroke="#25D366" stroke-width="28" stroke-linecap="round"/>
    <path d="M-100 60 C-70 0,-10-40,20 0 C50 40,80-20,110 20" fill="none" stroke="#25D366" stroke-width="22" stroke-linecap="round" opacity="0.7"/>
    <path d="M-80 100 C-50 60,10 20,40 60 C70 100,100 40,130 80" fill="none" stroke="#25D366" stroke-width="16" stroke-linecap="round" opacity="0.4"/>
  </g>
</svg>
